<svg width="1280" height="320" viewBox="0 0 1280 320" fill="none" xmlns="http://www.w3.org/2000/svg">
  <rect width="1280" height="320" rx="28" fill="#F6F1E8"/>
  <rect x="26" y="26" width="1228" height="268" rx="22" fill="#FBF8F2" stroke="#E6DED0"/>
  <path d="M116 86C140 86 156 101 156 122C156 145 137 157 119 171C104 183 96 194 94 212" stroke="#161616" stroke-width="11" stroke-linecap="round"/>
  <path d="M168 70C192 70 208 85 208 106C208 128 189 141 171 155C156 167 148 178 146 196" stroke="#161616" stroke-width="11" stroke-linecap="round"/>
  <path d="M220 86C244 86 260 101 260 122C260 145 241 157 223 171C208 183 200 194 198 212" stroke="#161616" stroke-width="11" stroke-linecap="round"/>
  <path d="M92 224H176L196 206L214 238L232 170L250 224H306" stroke="#C75C34" stroke-width="10" stroke-linecap="round" stroke-linejoin="round"/>
  <circle cx="322" cy="224" r="8" fill="#C75C34"/>
  <text x="378" y="138" fill="#111111" font-family="ui-sans-serif, -apple-system, BlinkMacSystemFont, 'Segoe UI', sans-serif" font-size="74" font-weight="700" letter-spacing="-1.5">VitalClaw</text>
  <text x="382" y="188" fill="#6A655E" font-family="ui-sans-serif, -apple-system, BlinkMacSystemFont, 'Segoe UI', sans-serif" font-size="28" font-weight="500">Keeps a grip on your baseline</text>
  <text x="382" y="234" fill="#3E3A35" font-family="ui-monospace, SFMono-Regular, Menlo, monospace" font-size="22">Local-first personal health observability engine for Apple Health + Codex</text>
  <rect x="946" y="78" width="250" height="54" rx="27" fill="#191919"/>
  <text x="1071" y="112" text-anchor="middle" fill="#F8F4EC" font-family="ui-sans-serif, -apple-system, BlinkMacSystemFont, 'Segoe UI', sans-serif" font-size="24" font-weight="600">early beta</text>
  <rect x="946" y="148" width="250" height="54" rx="27" fill="#F1E6D7" stroke="#E2D1B9"/>
  <text x="1071" y="182" text-anchor="middle" fill="#8A4D24" font-family="ui-sans-serif, -apple-system, BlinkMacSystemFont, 'Segoe UI', sans-serif" font-size="24" font-weight="600">apple health only</text>
  <rect x="946" y="218" width="250" height="54" rx="27" fill="#E9F2EC" stroke="#C7DECF"/>
  <text x="1071" y="252" text-anchor="middle" fill="#216343" font-family="ui-sans-serif, -apple-system, BlinkMacSystemFont, 'Segoe UI', sans-serif" font-size="24" font-weight="600">codex-native</text>
</svg>
